<svg xmlns="http://www.w3.org/2000/svg" width="722" height="142" font-family="sans-serif" font-size="11">
<rect width="722" height="142" fill="white"/>
<line x1="132" y1="64" x2="692" y2="64" stroke="#eeeeee"/>
<circle cx="120" cy="64" r="4" fill="#009E73"/>
<text x="110" y="67" text-anchor="end" fill="#1a1a1a">behavioral</text>
<line x1="365" y1="58" x2="412" y2="58" stroke="#cccccc" stroke-width="0.6"/>
<line x1="319" y1="51" x2="412" y2="58" stroke="#cccccc" stroke-width="0.6"/>
<line x1="225" y1="51" x2="412" y2="58" stroke="#cccccc" stroke-width="0.6"/>
<line x1="132" y1="-242" x2="179" y2="18" stroke="#cccccc" stroke-width="0.6"/>
<line x1="179" y1="18" x2="365" y2="58" stroke="#cccccc" stroke-width="0.6"/>
<line x1="225" y1="51" x2="365" y2="58" stroke="#cccccc" stroke-width="0.6"/>
<line x1="319" y1="51" x2="365" y2="58" stroke="#cccccc" stroke-width="0.6"/>
<line x1="132" y1="-242" x2="225" y2="38" stroke="#cccccc" stroke-width="0.6"/>
<line x1="179" y1="18" x2="225" y2="38" stroke="#cccccc" stroke-width="0.6"/>
<line x1="225" y1="38" x2="272" y2="38" stroke="#cccccc" stroke-width="0.6"/>
<line x1="132" y1="-176" x2="225" y2="51" stroke="#cccccc" stroke-width="0.6"/>
<line x1="179" y1="32" x2="225" y2="51" stroke="#cccccc" stroke-width="0.6"/>
<line x1="179" y1="44" x2="225" y2="51" stroke="#cccccc" stroke-width="0.6"/>
<line x1="132" y1="-176" x2="179" y2="32" stroke="#cccccc" stroke-width="0.6"/>
<line x1="132" y1="-176" x2="179" y2="44" stroke="#cccccc" stroke-width="0.6"/>
<line x1="179" y1="32" x2="225" y2="64" stroke="#cccccc" stroke-width="0.6"/>
<line x1="179" y1="44" x2="225" y2="64" stroke="#cccccc" stroke-width="0.6"/>
<line x1="132" y1="-176" x2="272" y2="51" stroke="#cccccc" stroke-width="0.6"/>
<line x1="225" y1="51" x2="272" y2="51" stroke="#cccccc" stroke-width="0.6"/>
<line x1="272" y1="51" x2="319" y2="51" stroke="#cccccc" stroke-width="0.6"/>
<line x1="319" y1="51" x2="365" y2="70" stroke="#cccccc" stroke-width="0.6"/>
<line x1="132" y1="-176" x2="365" y2="70" stroke="#cccccc" stroke-width="0.6"/>
<line x1="132" y1="-164" x2="179" y2="58" stroke="#cccccc" stroke-width="0.6"/>
<line x1="132" y1="-150" x2="179" y2="58" stroke="#cccccc" stroke-width="0.6"/>
<line x1="132" y1="-124" x2="179" y2="70" stroke="#cccccc" stroke-width="0.6"/>
<line x1="179" y1="70" x2="225" y2="77" stroke="#cccccc" stroke-width="0.6"/>
<line x1="132" y1="-112" x2="179" y2="84" stroke="#cccccc" stroke-width="0.6"/>
<line x1="132" y1="-98" x2="179" y2="84" stroke="#cccccc" stroke-width="0.6"/>
<line x1="132" y1="-86" x2="179" y2="84" stroke="#cccccc" stroke-width="0.6"/>
<line x1="132" y1="-72" x2="179" y2="84" stroke="#cccccc" stroke-width="0.6"/>
<line x1="132" y1="-98" x2="272" y2="64" stroke="#cccccc" stroke-width="0.6"/>
<line x1="225" y1="77" x2="272" y2="64" stroke="#cccccc" stroke-width="0.6"/>
<line x1="225" y1="77" x2="272" y2="77" stroke="#cccccc" stroke-width="0.6"/>
<line x1="272" y1="77" x2="319" y2="64" stroke="#cccccc" stroke-width="0.6"/>
<line x1="412" y1="58" x2="459" y2="64" stroke="#cccccc" stroke-width="0.6"/>
<line x1="225" y1="38" x2="319" y2="77" stroke="#cccccc" stroke-width="0.6"/>
<line x1="272" y1="38" x2="319" y2="77" stroke="#cccccc" stroke-width="0.6"/>
<line x1="225" y1="51" x2="505" y2="58" stroke="#cccccc" stroke-width="0.6"/>
<line x1="459" y1="64" x2="505" y2="58" stroke="#cccccc" stroke-width="0.6"/>
<line x1="319" y1="51" x2="505" y2="70" stroke="#cccccc" stroke-width="0.6"/>
<line x1="459" y1="64" x2="505" y2="70" stroke="#cccccc" stroke-width="0.6"/>
<line x1="505" y1="70" x2="552" y2="64" stroke="#cccccc" stroke-width="0.6"/>
<line x1="319" y1="51" x2="552" y2="64" stroke="#cccccc" stroke-width="0.6"/>
<line x1="505" y1="58" x2="552" y2="64" stroke="#cccccc" stroke-width="0.6"/>
<line x1="552" y1="64" x2="599" y2="64" stroke="#cccccc" stroke-width="0.6"/>
<line x1="505" y1="70" x2="599" y2="64" stroke="#cccccc" stroke-width="0.6"/>
<line x1="132" y1="356" x2="179" y2="96" stroke="#cccccc" stroke-width="0.6"/>
<line x1="132" y1="330" x2="179" y2="110" stroke="#cccccc" stroke-width="0.6"/>
<line x1="179" y1="110" x2="225" y2="90" stroke="#cccccc" stroke-width="0.6"/>
<line x1="225" y1="90" x2="272" y2="90" stroke="#cccccc" stroke-width="0.6"/>
<line x1="365" y1="58" x2="645" y2="64" stroke="#cccccc" stroke-width="0.6"/>
<line x1="599" y1="64" x2="645" y2="64" stroke="#cccccc" stroke-width="0.6"/>
<line x1="412" y1="58" x2="645" y2="64" stroke="#cccccc" stroke-width="0.6"/>
<line x1="365" y1="58" x2="692" y2="64" stroke="#cccccc" stroke-width="0.6"/>
<line x1="645" y1="64" x2="692" y2="64" stroke="#cccccc" stroke-width="0.6"/>
<line x1="225" y1="51" x2="412" y2="70" stroke="#cccccc" stroke-width="0.6"/>
<line x1="365" y1="58" x2="412" y2="70" stroke="#cccccc" stroke-width="0.6"/>
<circle cx="412" cy="58" r="4" fill="#009E73"/>
<circle cx="132" cy="-242" r="4" fill="#009E73"/>
<circle cx="179" cy="18" r="4" fill="#009E73"/>
<circle cx="365" cy="58" r="4" fill="#009E73"/>
<circle cx="225" cy="38" r="4" fill="#009E73"/>
<circle cx="272" cy="38" r="4" fill="#009E73"/>
<circle cx="225" cy="51" r="4" fill="#009E73"/>
<circle cx="179" cy="32" r="4" fill="#009E73"/>
<circle cx="179" cy="44" r="4" fill="#009E73"/>
<circle cx="225" cy="64" r="4" fill="#009E73"/>
<circle cx="225" cy="64" r="7.5" fill="none" stroke="#1a1a1a" stroke-width="1.3"/>
<circle cx="132" cy="-228" r="4" fill="#009E73"/>
<circle cx="132" cy="-228" r="7.5" fill="none" stroke="#1a1a1a" stroke-width="1.3"/>
<circle cx="132" cy="-216" r="4" fill="#009E73"/>
<circle cx="132" cy="-216" r="7.5" fill="none" stroke="#1a1a1a" stroke-width="1.3"/>
<circle cx="132" cy="-202" r="4" fill="#009E73"/>
<circle cx="132" cy="-202" r="7.5" fill="none" stroke="#1a1a1a" stroke-width="1.3"/>
<circle cx="132" cy="-190" r="4" fill="#009E73"/>
<circle cx="132" cy="-190" r="7.5" fill="none" stroke="#1a1a1a" stroke-width="1.3"/>
<circle cx="132" cy="-176" r="4" fill="#009E73"/>
<circle cx="272" cy="51" r="4" fill="#009E73"/>
<circle cx="319" cy="51" r="4" fill="#009E73"/>
<circle cx="365" cy="70" r="4" fill="#009E73"/>
<circle cx="365" cy="70" r="7.5" fill="none" stroke="#1a1a1a" stroke-width="1.3"/>
<circle cx="179" cy="58" r="4" fill="#009E73"/>
<circle cx="179" cy="58" r="7.5" fill="none" stroke="#1a1a1a" stroke-width="1.3"/>
<circle cx="132" cy="-164" r="4" fill="#009E73"/>
<circle cx="132" cy="-150" r="4" fill="#009E73"/>
<circle cx="132" cy="-138" r="4" fill="#009E73"/>
<circle cx="132" cy="-138" r="7.5" fill="none" stroke="#1a1a1a" stroke-width="1.3"/>
<circle cx="132" cy="-124" r="4" fill="#009E73"/>
<circle cx="179" cy="70" r="4" fill="#009E73"/>
<circle cx="225" cy="77" r="4" fill="#009E73"/>
<circle cx="179" cy="84" r="4" fill="#009E73"/>
<circle cx="179" cy="84" r="7.5" fill="none" stroke="#1a1a1a" stroke-width="1.3"/>
<circle cx="132" cy="-112" r="4" fill="#009E73"/>
<circle cx="132" cy="-98" r="4" fill="#009E73"/>
<circle cx="132" cy="-86" r="4" fill="#009E73"/>
<circle cx="132" cy="-72" r="4" fill="#009E73"/>
<circle cx="272" cy="64" r="4" fill="#009E73"/>
<circle cx="272" cy="64" r="7.5" fill="none" stroke="#1a1a1a" stroke-width="1.3"/>
<circle cx="272" cy="77" r="4" fill="#009E73"/>
<circle cx="319" cy="64" r="4" fill="#009E73"/>
<circle cx="319" cy="64" r="7.5" fill="none" stroke="#1a1a1a" stroke-width="1.3"/>
<circle cx="132" cy="-60" r="4" fill="#009E73"/>
<circle cx="132" cy="-60" r="7.5" fill="none" stroke="#1a1a1a" stroke-width="1.3"/>
<circle cx="132" cy="-46" r="4" fill="#009E73"/>
<circle cx="132" cy="-46" r="7.5" fill="none" stroke="#1a1a1a" stroke-width="1.3"/>
<circle cx="132" cy="-34" r="4" fill="#009E73"/>
<circle cx="132" cy="-34" r="7.5" fill="none" stroke="#1a1a1a" stroke-width="1.3"/>
<circle cx="132" cy="-20" r="4" fill="#009E73"/>
<circle cx="132" cy="-20" r="7.5" fill="none" stroke="#1a1a1a" stroke-width="1.3"/>
<circle cx="132" cy="-8" r="4" fill="#009E73"/>
<circle cx="132" cy="-8" r="7.5" fill="none" stroke="#1a1a1a" stroke-width="1.3"/>
<circle cx="132" cy="6" r="4" fill="#009E73"/>
<circle cx="132" cy="6" r="7.5" fill="none" stroke="#1a1a1a" stroke-width="1.3"/>
<circle cx="132" cy="18" r="4" fill="#009E73"/>
<circle cx="132" cy="18" r="7.5" fill="none" stroke="#1a1a1a" stroke-width="1.3"/>
<circle cx="132" cy="32" r="4" fill="#009E73"/>
<circle cx="132" cy="32" r="7.5" fill="none" stroke="#1a1a1a" stroke-width="1.3"/>
<circle cx="132" cy="44" r="4" fill="#009E73"/>
<circle cx="132" cy="44" r="7.5" fill="none" stroke="#1a1a1a" stroke-width="1.3"/>
<circle cx="132" cy="58" r="4" fill="#009E73"/>
<circle cx="132" cy="58" r="7.5" fill="none" stroke="#1a1a1a" stroke-width="1.3"/>
<circle cx="132" cy="70" r="4" fill="#009E73"/>
<circle cx="132" cy="70" r="7.5" fill="none" stroke="#1a1a1a" stroke-width="1.3"/>
<circle cx="132" cy="84" r="4" fill="#009E73"/>
<circle cx="132" cy="84" r="7.5" fill="none" stroke="#1a1a1a" stroke-width="1.3"/>
<circle cx="132" cy="96" r="4" fill="#009E73"/>
<circle cx="132" cy="96" r="7.5" fill="none" stroke="#1a1a1a" stroke-width="1.3"/>
<circle cx="132" cy="110" r="4" fill="#009E73"/>
<circle cx="132" cy="110" r="7.5" fill="none" stroke="#1a1a1a" stroke-width="1.3"/>
<circle cx="132" cy="122" r="4" fill="#009E73"/>
<circle cx="132" cy="122" r="7.5" fill="none" stroke="#1a1a1a" stroke-width="1.3"/>
<circle cx="132" cy="136" r="4" fill="#009E73"/>
<circle cx="132" cy="136" r="7.5" fill="none" stroke="#1a1a1a" stroke-width="1.3"/>
<circle cx="132" cy="148" r="4" fill="#009E73"/>
<circle cx="132" cy="148" r="7.5" fill="none" stroke="#1a1a1a" stroke-width="1.3"/>
<circle cx="132" cy="162" r="4" fill="#009E73"/>
<circle cx="132" cy="162" r="7.5" fill="none" stroke="#1a1a1a" stroke-width="1.3"/>
<circle cx="132" cy="174" r="4" fill="#009E73"/>
<circle cx="132" cy="174" r="7.5" fill="none" stroke="#1a1a1a" stroke-width="1.3"/>
<circle cx="132" cy="188" r="4" fill="#009E73"/>
<circle cx="132" cy="188" r="7.5" fill="none" stroke="#1a1a1a" stroke-width="1.3"/>
<circle cx="132" cy="200" r="4" fill="#009E73"/>
<circle cx="132" cy="200" r="7.5" fill="none" stroke="#1a1a1a" stroke-width="1.3"/>
<circle cx="132" cy="214" r="4" fill="#009E73"/>
<circle cx="132" cy="214" r="7.5" fill="none" stroke="#1a1a1a" stroke-width="1.3"/>
<circle cx="132" cy="226" r="4" fill="#009E73"/>
<circle cx="132" cy="226" r="7.5" fill="none" stroke="#1a1a1a" stroke-width="1.3"/>
<circle cx="459" cy="64" r="4" fill="#009E73"/>
<circle cx="319" cy="77" r="4" fill="#009E73"/>
<circle cx="319" cy="77" r="7.5" fill="none" stroke="#1a1a1a" stroke-width="1.3"/>
<circle cx="505" cy="58" r="4" fill="#009E73"/>
<circle cx="505" cy="70" r="4" fill="#009E73"/>
<circle cx="552" cy="64" r="4" fill="#009E73"/>
<circle cx="599" cy="64" r="4" fill="#009E73"/>
<circle cx="132" cy="240" r="4" fill="#009E73"/>
<circle cx="132" cy="240" r="7.5" fill="none" stroke="#1a1a1a" stroke-width="1.3"/>
<circle cx="132" cy="252" r="4" fill="#009E73"/>
<circle cx="132" cy="252" r="7.5" fill="none" stroke="#1a1a1a" stroke-width="1.3"/>
<circle cx="132" cy="266" r="4" fill="#009E73"/>
<circle cx="132" cy="266" r="7.5" fill="none" stroke="#1a1a1a" stroke-width="1.3"/>
<circle cx="132" cy="278" r="4" fill="#009E73"/>
<circle cx="132" cy="278" r="7.5" fill="none" stroke="#1a1a1a" stroke-width="1.3"/>
<circle cx="132" cy="292" r="4" fill="#009E73"/>
<circle cx="132" cy="292" r="7.5" fill="none" stroke="#1a1a1a" stroke-width="1.3"/>
<circle cx="132" cy="304" r="4" fill="#009E73"/>
<circle cx="132" cy="304" r="7.5" fill="none" stroke="#1a1a1a" stroke-width="1.3"/>
<circle cx="132" cy="318" r="4" fill="#009E73"/>
<circle cx="132" cy="318" r="7.5" fill="none" stroke="#1a1a1a" stroke-width="1.3"/>
<circle cx="132" cy="330" r="4" fill="#009E73"/>
<circle cx="132" cy="344" r="4" fill="#009E73"/>
<circle cx="132" cy="344" r="7.5" fill="none" stroke="#1a1a1a" stroke-width="1.3"/>
<circle cx="132" cy="356" r="4" fill="#009E73"/>
<circle cx="179" cy="96" r="4" fill="#009E73"/>
<circle cx="179" cy="96" r="7.5" fill="none" stroke="#1a1a1a" stroke-width="1.3"/>
<circle cx="179" cy="110" r="4" fill="#009E73"/>
<circle cx="225" cy="90" r="4" fill="#009E73"/>
<circle cx="272" cy="90" r="4" fill="#009E73"/>
<circle cx="272" cy="90" r="7.5" fill="none" stroke="#1a1a1a" stroke-width="1.3"/>
<circle cx="132" cy="370" r="4" fill="#009E73"/>
<circle cx="132" cy="370" r="7.5" fill="none" stroke="#1a1a1a" stroke-width="1.3"/>
<circle cx="645" cy="64" r="4" fill="#009E73"/>
<circle cx="692" cy="64" r="4" fill="#009E73"/>
<circle cx="692" cy="64" r="7.5" fill="none" stroke="#1a1a1a" stroke-width="1.3"/>
<circle cx="412" cy="70" r="4" fill="#009E73"/>
<circle cx="412" cy="70" r="7.5" fill="none" stroke="#1a1a1a" stroke-width="1.3"/>
<circle cx="136" cy="18" r="4" fill="#1a1a1a"/><text x="144" y="22" fill="#1a1a1a">effective</text>
<circle cx="210" cy="18" r="3.2" fill="white" stroke="#1a1a1a" stroke-width="1.4"/><text x="219" y="22" fill="#1a1a1a">self (if clamped)</text>
<circle cx="332" cy="18" r="6.5" fill="none" stroke="#1a1a1a" stroke-width="1.3"/><circle cx="332" cy="18" r="3" fill="#1a1a1a"/><text x="343" y="22" fill="#1a1a1a">terminal (nothing rests on it)</text>
<text x="412" y="128" text-anchor="middle" fill="#1a1a1a">grounding depth  (foundations → theses)</text>
</svg>
