<svg xmlns="http://www.w3.org/2000/svg" width="722" height="202" font-family="sans-serif" font-size="11">
<rect width="722" height="202" fill="white"/>
<line x1="132" y1="64" x2="692" y2="64" stroke="#eeeeee"/>
<circle cx="120" cy="64" r="4" fill="#CC79A7"/>
<text x="110" y="67" text-anchor="end" fill="#1a1a1a">imported</text>
<line x1="132" y1="124" x2="692" y2="124" stroke="#eeeeee"/>
<circle cx="120" cy="124" r="4" fill="#009E73"/>
<text x="110" y="127" text-anchor="end" fill="#1a1a1a">behavioral</text>
<line x1="365" y1="118" x2="412" y2="118" stroke="#cccccc" stroke-width="0.6"/>
<line x1="319" y1="111" x2="412" y2="118" stroke="#cccccc" stroke-width="0.6"/>
<line x1="225" y1="111" x2="412" y2="118" stroke="#cccccc" stroke-width="0.6"/>
<line x1="132" y1="-175" x2="179" y2="78" stroke="#cccccc" stroke-width="0.6"/>
<line x1="179" y1="78" x2="365" y2="118" stroke="#cccccc" stroke-width="0.6"/>
<line x1="225" y1="111" x2="365" y2="118" stroke="#cccccc" stroke-width="0.6"/>
<line x1="319" y1="111" x2="365" y2="118" stroke="#cccccc" stroke-width="0.6"/>
<line x1="132" y1="-175" x2="225" y2="98" stroke="#cccccc" stroke-width="0.6"/>
<line x1="179" y1="78" x2="225" y2="98" stroke="#cccccc" stroke-width="0.6"/>
<line x1="225" y1="98" x2="272" y2="98" stroke="#cccccc" stroke-width="0.6"/>
<line x1="132" y1="-110" x2="225" y2="111" stroke="#cccccc" stroke-width="0.6"/>
<line x1="179" y1="92" x2="225" y2="111" stroke="#cccccc" stroke-width="0.6"/>
<line x1="179" y1="104" x2="225" y2="111" stroke="#cccccc" stroke-width="0.6"/>
<line x1="132" y1="-110" x2="179" y2="92" stroke="#cccccc" stroke-width="0.6"/>
<line x1="132" y1="-110" x2="179" y2="104" stroke="#cccccc" stroke-width="0.6"/>
<line x1="179" y1="92" x2="225" y2="124" stroke="#cccccc" stroke-width="0.6"/>
<line x1="179" y1="104" x2="225" y2="124" stroke="#cccccc" stroke-width="0.6"/>
<line x1="132" y1="-110" x2="272" y2="111" stroke="#cccccc" stroke-width="0.6"/>
<line x1="225" y1="111" x2="272" y2="111" stroke="#cccccc" stroke-width="0.6"/>
<line x1="272" y1="111" x2="319" y2="111" stroke="#cccccc" stroke-width="0.6"/>
<line x1="319" y1="111" x2="365" y2="130" stroke="#cccccc" stroke-width="0.6"/>
<line x1="132" y1="-110" x2="365" y2="130" stroke="#cccccc" stroke-width="0.6"/>
<line x1="132" y1="-97" x2="179" y2="118" stroke="#cccccc" stroke-width="0.6"/>
<line x1="132" y1="-84" x2="179" y2="118" stroke="#cccccc" stroke-width="0.6"/>
<line x1="132" y1="-58" x2="179" y2="130" stroke="#cccccc" stroke-width="0.6"/>
<line x1="179" y1="130" x2="225" y2="137" stroke="#cccccc" stroke-width="0.6"/>
<line x1="132" y1="-45" x2="179" y2="144" stroke="#cccccc" stroke-width="0.6"/>
<line x1="132" y1="-32" x2="179" y2="144" stroke="#cccccc" stroke-width="0.6"/>
<line x1="132" y1="-19" x2="179" y2="144" stroke="#cccccc" stroke-width="0.6"/>
<line x1="132" y1="-6" x2="179" y2="144" stroke="#cccccc" stroke-width="0.6"/>
<line x1="132" y1="-32" x2="272" y2="124" stroke="#cccccc" stroke-width="0.6"/>
<line x1="225" y1="137" x2="272" y2="124" stroke="#cccccc" stroke-width="0.6"/>
<line x1="225" y1="137" x2="272" y2="137" stroke="#cccccc" stroke-width="0.6"/>
<line x1="272" y1="137" x2="319" y2="124" stroke="#cccccc" stroke-width="0.6"/>
<line x1="412" y1="118" x2="459" y2="124" stroke="#cccccc" stroke-width="0.6"/>
<line x1="225" y1="98" x2="319" y2="137" stroke="#cccccc" stroke-width="0.6"/>
<line x1="272" y1="98" x2="319" y2="137" stroke="#cccccc" stroke-width="0.6"/>
<line x1="225" y1="111" x2="505" y2="118" stroke="#cccccc" stroke-width="0.6"/>
<line x1="459" y1="124" x2="505" y2="118" stroke="#cccccc" stroke-width="0.6"/>
<line x1="319" y1="111" x2="505" y2="130" stroke="#cccccc" stroke-width="0.6"/>
<line x1="459" y1="124" x2="505" y2="130" stroke="#cccccc" stroke-width="0.6"/>
<line x1="505" y1="130" x2="552" y2="124" stroke="#cccccc" stroke-width="0.6"/>
<line x1="319" y1="111" x2="552" y2="124" stroke="#cccccc" stroke-width="0.6"/>
<line x1="505" y1="118" x2="552" y2="124" stroke="#cccccc" stroke-width="0.6"/>
<line x1="552" y1="124" x2="599" y2="124" stroke="#cccccc" stroke-width="0.6"/>
<line x1="505" y1="130" x2="599" y2="124" stroke="#cccccc" stroke-width="0.6"/>
<line x1="132" y1="410" x2="179" y2="156" stroke="#cccccc" stroke-width="0.6"/>
<line x1="132" y1="384" x2="179" y2="170" stroke="#cccccc" stroke-width="0.6"/>
<line x1="179" y1="170" x2="225" y2="150" stroke="#cccccc" stroke-width="0.6"/>
<line x1="225" y1="150" x2="272" y2="150" stroke="#cccccc" stroke-width="0.6"/>
<line x1="365" y1="118" x2="645" y2="124" stroke="#cccccc" stroke-width="0.6"/>
<line x1="599" y1="124" x2="645" y2="124" stroke="#cccccc" stroke-width="0.6"/>
<line x1="412" y1="118" x2="645" y2="124" stroke="#cccccc" stroke-width="0.6"/>
<line x1="365" y1="118" x2="692" y2="124" stroke="#cccccc" stroke-width="0.6"/>
<line x1="645" y1="124" x2="692" y2="124" stroke="#cccccc" stroke-width="0.6"/>
<line x1="225" y1="111" x2="412" y2="130" stroke="#cccccc" stroke-width="0.6"/>
<line x1="365" y1="118" x2="412" y2="130" stroke="#cccccc" stroke-width="0.6"/>
<circle cx="412" cy="118" r="4" fill="#009E73"/>
<circle cx="132" cy="-175" r="4" fill="#009E73"/>
<circle cx="179" cy="78" r="4" fill="#009E73"/>
<circle cx="365" cy="118" r="4" fill="#009E73"/>
<circle cx="225" cy="98" r="4" fill="#009E73"/>
<circle cx="272" cy="98" r="4" fill="#009E73"/>
<circle cx="225" cy="111" r="4" fill="#009E73"/>
<circle cx="179" cy="92" r="4" fill="#009E73"/>
<circle cx="179" cy="104" r="4" fill="#009E73"/>
<circle cx="225" cy="124" r="4" fill="#009E73"/>
<circle cx="225" cy="124" r="7.5" fill="none" stroke="#1a1a1a" stroke-width="1.3"/>
<circle cx="132" cy="-162" r="4" fill="#009E73"/>
<circle cx="132" cy="-162" r="7.5" fill="none" stroke="#1a1a1a" stroke-width="1.3"/>
<circle cx="132" cy="-149" r="4" fill="#009E73"/>
<circle cx="132" cy="-149" r="7.5" fill="none" stroke="#1a1a1a" stroke-width="1.3"/>
<circle cx="132" cy="-136" r="4" fill="#009E73"/>
<circle cx="132" cy="-136" r="7.5" fill="none" stroke="#1a1a1a" stroke-width="1.3"/>
<circle cx="132" cy="-123" r="4" fill="#009E73"/>
<circle cx="132" cy="-123" r="7.5" fill="none" stroke="#1a1a1a" stroke-width="1.3"/>
<circle cx="132" cy="-110" r="4" fill="#009E73"/>
<circle cx="272" cy="111" r="4" fill="#009E73"/>
<circle cx="319" cy="111" r="4" fill="#009E73"/>
<circle cx="365" cy="130" r="4" fill="#009E73"/>
<circle cx="365" cy="130" r="7.5" fill="none" stroke="#1a1a1a" stroke-width="1.3"/>
<circle cx="179" cy="118" r="4" fill="#009E73"/>
<circle cx="179" cy="118" r="7.5" fill="none" stroke="#1a1a1a" stroke-width="1.3"/>
<circle cx="132" cy="-97" r="4" fill="#009E73"/>
<circle cx="132" cy="-84" r="4" fill="#009E73"/>
<circle cx="132" cy="-71" r="4" fill="#009E73"/>
<circle cx="132" cy="-71" r="7.5" fill="none" stroke="#1a1a1a" stroke-width="1.3"/>
<circle cx="132" cy="-58" r="4" fill="#009E73"/>
<circle cx="179" cy="130" r="4" fill="#009E73"/>
<circle cx="225" cy="137" r="4" fill="#009E73"/>
<circle cx="179" cy="144" r="4" fill="#009E73"/>
<circle cx="179" cy="144" r="7.5" fill="none" stroke="#1a1a1a" stroke-width="1.3"/>
<circle cx="132" cy="-45" r="4" fill="#009E73"/>
<circle cx="132" cy="-32" r="4" fill="#009E73"/>
<circle cx="132" cy="-19" r="4" fill="#009E73"/>
<circle cx="132" cy="-6" r="4" fill="#009E73"/>
<circle cx="272" cy="124" r="4" fill="#009E73"/>
<circle cx="272" cy="124" r="7.5" fill="none" stroke="#1a1a1a" stroke-width="1.3"/>
<circle cx="272" cy="137" r="4" fill="#009E73"/>
<circle cx="319" cy="124" r="4" fill="#009E73"/>
<circle cx="319" cy="124" r="7.5" fill="none" stroke="#1a1a1a" stroke-width="1.3"/>
<circle cx="132" cy="7" r="4" fill="#009E73"/>
<circle cx="132" cy="7" r="7.5" fill="none" stroke="#1a1a1a" stroke-width="1.3"/>
<circle cx="132" cy="20" r="4" fill="#009E73"/>
<circle cx="132" cy="20" r="7.5" fill="none" stroke="#1a1a1a" stroke-width="1.3"/>
<circle cx="132" cy="33" r="4" fill="#009E73"/>
<circle cx="132" cy="33" r="7.5" fill="none" stroke="#1a1a1a" stroke-width="1.3"/>
<circle cx="132" cy="46" r="4" fill="#009E73"/>
<circle cx="132" cy="46" r="7.5" fill="none" stroke="#1a1a1a" stroke-width="1.3"/>
<circle cx="132" cy="59" r="4" fill="#009E73"/>
<circle cx="132" cy="59" r="7.5" fill="none" stroke="#1a1a1a" stroke-width="1.3"/>
<circle cx="132" cy="72" r="4" fill="#009E73"/>
<circle cx="132" cy="72" r="7.5" fill="none" stroke="#1a1a1a" stroke-width="1.3"/>
<circle cx="132" cy="85" r="4" fill="#009E73"/>
<circle cx="132" cy="85" r="7.5" fill="none" stroke="#1a1a1a" stroke-width="1.3"/>
<circle cx="132" cy="98" r="4" fill="#009E73"/>
<circle cx="132" cy="98" r="7.5" fill="none" stroke="#1a1a1a" stroke-width="1.3"/>
<circle cx="132" cy="111" r="4" fill="#009E73"/>
<circle cx="132" cy="111" r="7.5" fill="none" stroke="#1a1a1a" stroke-width="1.3"/>
<circle cx="132" cy="64" r="4" fill="#CC79A7"/>
<circle cx="132" cy="64" r="7.5" fill="none" stroke="#1a1a1a" stroke-width="1.3"/>
<circle cx="132" cy="124" r="4" fill="#009E73"/>
<circle cx="132" cy="124" r="7.5" fill="none" stroke="#1a1a1a" stroke-width="1.3"/>
<circle cx="132" cy="137" r="4" fill="#009E73"/>
<circle cx="132" cy="137" r="7.5" fill="none" stroke="#1a1a1a" stroke-width="1.3"/>
<circle cx="132" cy="150" r="4" fill="#009E73"/>
<circle cx="132" cy="150" r="7.5" fill="none" stroke="#1a1a1a" stroke-width="1.3"/>
<circle cx="132" cy="163" r="4" fill="#009E73"/>
<circle cx="132" cy="163" r="7.5" fill="none" stroke="#1a1a1a" stroke-width="1.3"/>
<circle cx="132" cy="176" r="4" fill="#009E73"/>
<circle cx="132" cy="176" r="7.5" fill="none" stroke="#1a1a1a" stroke-width="1.3"/>
<circle cx="132" cy="189" r="4" fill="#009E73"/>
<circle cx="132" cy="189" r="7.5" fill="none" stroke="#1a1a1a" stroke-width="1.3"/>
<circle cx="132" cy="202" r="4" fill="#009E73"/>
<circle cx="132" cy="202" r="7.5" fill="none" stroke="#1a1a1a" stroke-width="1.3"/>
<circle cx="132" cy="215" r="4" fill="#009E73"/>
<circle cx="132" cy="215" r="7.5" fill="none" stroke="#1a1a1a" stroke-width="1.3"/>
<circle cx="132" cy="228" r="4" fill="#009E73"/>
<circle cx="132" cy="228" r="7.5" fill="none" stroke="#1a1a1a" stroke-width="1.3"/>
<circle cx="132" cy="241" r="4" fill="#009E73"/>
<circle cx="132" cy="241" r="7.5" fill="none" stroke="#1a1a1a" stroke-width="1.3"/>
<circle cx="132" cy="254" r="4" fill="#009E73"/>
<circle cx="132" cy="254" r="7.5" fill="none" stroke="#1a1a1a" stroke-width="1.3"/>
<circle cx="132" cy="267" r="4" fill="#009E73"/>
<circle cx="132" cy="267" r="7.5" fill="none" stroke="#1a1a1a" stroke-width="1.3"/>
<circle cx="132" cy="280" r="4" fill="#009E73"/>
<circle cx="132" cy="280" r="7.5" fill="none" stroke="#1a1a1a" stroke-width="1.3"/>
<circle cx="459" cy="124" r="4" fill="#009E73"/>
<circle cx="319" cy="137" r="4" fill="#009E73"/>
<circle cx="319" cy="137" r="7.5" fill="none" stroke="#1a1a1a" stroke-width="1.3"/>
<circle cx="505" cy="118" r="4" fill="#009E73"/>
<circle cx="505" cy="130" r="4" fill="#009E73"/>
<circle cx="552" cy="124" r="4" fill="#009E73"/>
<circle cx="599" cy="124" r="4" fill="#009E73"/>
<circle cx="132" cy="293" r="4" fill="#009E73"/>
<circle cx="132" cy="293" r="7.5" fill="none" stroke="#1a1a1a" stroke-width="1.3"/>
<circle cx="132" cy="306" r="4" fill="#009E73"/>
<circle cx="132" cy="306" r="7.5" fill="none" stroke="#1a1a1a" stroke-width="1.3"/>
<circle cx="132" cy="319" r="4" fill="#009E73"/>
<circle cx="132" cy="319" r="7.5" fill="none" stroke="#1a1a1a" stroke-width="1.3"/>
<circle cx="132" cy="332" r="4" fill="#009E73"/>
<circle cx="132" cy="332" r="7.5" fill="none" stroke="#1a1a1a" stroke-width="1.3"/>
<circle cx="132" cy="345" r="4" fill="#009E73"/>
<circle cx="132" cy="345" r="7.5" fill="none" stroke="#1a1a1a" stroke-width="1.3"/>
<circle cx="132" cy="358" r="4" fill="#009E73"/>
<circle cx="132" cy="358" r="7.5" fill="none" stroke="#1a1a1a" stroke-width="1.3"/>
<circle cx="132" cy="371" r="4" fill="#009E73"/>
<circle cx="132" cy="371" r="7.5" fill="none" stroke="#1a1a1a" stroke-width="1.3"/>
<circle cx="132" cy="384" r="4" fill="#009E73"/>
<circle cx="132" cy="397" r="4" fill="#009E73"/>
<circle cx="132" cy="397" r="7.5" fill="none" stroke="#1a1a1a" stroke-width="1.3"/>
<circle cx="132" cy="410" r="4" fill="#009E73"/>
<circle cx="179" cy="156" r="4" fill="#009E73"/>
<circle cx="179" cy="156" r="7.5" fill="none" stroke="#1a1a1a" stroke-width="1.3"/>
<circle cx="179" cy="170" r="4" fill="#009E73"/>
<circle cx="225" cy="150" r="4" fill="#009E73"/>
<circle cx="272" cy="150" r="4" fill="#009E73"/>
<circle cx="272" cy="150" r="7.5" fill="none" stroke="#1a1a1a" stroke-width="1.3"/>
<circle cx="132" cy="423" r="4" fill="#009E73"/>
<circle cx="132" cy="423" r="7.5" fill="none" stroke="#1a1a1a" stroke-width="1.3"/>
<circle cx="645" cy="124" r="4" fill="#009E73"/>
<circle cx="692" cy="124" r="4" fill="#009E73"/>
<circle cx="692" cy="124" r="7.5" fill="none" stroke="#1a1a1a" stroke-width="1.3"/>
<circle cx="412" cy="130" r="4" fill="#009E73"/>
<circle cx="412" cy="130" r="7.5" fill="none" stroke="#1a1a1a" stroke-width="1.3"/>
<circle cx="136" cy="18" r="4" fill="#1a1a1a"/><text x="144" y="22" fill="#1a1a1a">effective</text>
<circle cx="210" cy="18" r="3.2" fill="white" stroke="#1a1a1a" stroke-width="1.4"/><text x="219" y="22" fill="#1a1a1a">self (if clamped)</text>
<circle cx="332" cy="18" r="6.5" fill="none" stroke="#1a1a1a" stroke-width="1.3"/><circle cx="332" cy="18" r="3" fill="#1a1a1a"/><text x="343" y="22" fill="#1a1a1a">terminal (nothing rests on it)</text>
<text x="412" y="188" text-anchor="middle" fill="#1a1a1a">grounding depth  (foundations → theses)</text>
</svg>
