<svg xmlns="http://www.w3.org/2000/svg" width="722" height="250" font-family="sans-serif" font-size="11">
<rect width="722" height="250" fill="white"/>
<line x1="132" y1="52" x2="692" y2="52" stroke="#eeeeee"/>
<circle cx="120" cy="52" r="4" fill="#009E73"/>
<text x="110" y="55" text-anchor="end" fill="#1a1a1a">behavioral</text>
<line x1="132" y1="112" x2="692" y2="112" stroke="#eeeeee"/>
<circle cx="120" cy="112" r="4" fill="#0072B2"/>
<text x="110" y="115" text-anchor="end" fill="#1a1a1a">indeterminate</text>
<line x1="132" y1="172" x2="692" y2="172" stroke="#eeeeee"/>
<circle cx="120" cy="172" r="4" fill="#D55E00"/>
<text x="110" y="175" text-anchor="end" fill="#1a1a1a">vacuous</text>
<line x1="132" y1="172" x2="150" y2="172" stroke="#cccccc" stroke-width="0.6"/>
<line x1="150" y1="172" x2="167" y2="172" stroke="#cccccc" stroke-width="0.6"/>
<line x1="167" y1="172" x2="184" y2="52" stroke="#cccccc" stroke-width="0.6"/>
<line x1="184" y1="52" x2="202" y2="52" stroke="#cccccc" stroke-width="0.6"/>
<line x1="202" y1="52" x2="220" y2="52" stroke="#cccccc" stroke-width="0.6"/>
<line x1="220" y1="52" x2="237" y2="52" stroke="#cccccc" stroke-width="0.6"/>
<line x1="237" y1="52" x2="254" y2="52" stroke="#cccccc" stroke-width="0.6"/>
<line x1="254" y1="52" x2="272" y2="52" stroke="#cccccc" stroke-width="0.6"/>
<line x1="272" y1="52" x2="290" y2="52" stroke="#cccccc" stroke-width="0.6"/>
<line x1="290" y1="52" x2="307" y2="52" stroke="#cccccc" stroke-width="0.6"/>
<line x1="307" y1="52" x2="324" y2="52" stroke="#cccccc" stroke-width="0.6"/>
<line x1="324" y1="52" x2="342" y2="52" stroke="#cccccc" stroke-width="0.6"/>
<line x1="342" y1="52" x2="360" y2="52" stroke="#cccccc" stroke-width="0.6"/>
<line x1="360" y1="52" x2="377" y2="52" stroke="#cccccc" stroke-width="0.6"/>
<line x1="377" y1="52" x2="394" y2="52" stroke="#cccccc" stroke-width="0.6"/>
<line x1="394" y1="52" x2="412" y2="52" stroke="#cccccc" stroke-width="0.6"/>
<line x1="412" y1="52" x2="430" y2="52" stroke="#cccccc" stroke-width="0.6"/>
<line x1="430" y1="52" x2="447" y2="52" stroke="#cccccc" stroke-width="0.6"/>
<line x1="447" y1="52" x2="464" y2="52" stroke="#cccccc" stroke-width="0.6"/>
<line x1="464" y1="52" x2="482" y2="52" stroke="#cccccc" stroke-width="0.6"/>
<line x1="482" y1="52" x2="500" y2="52" stroke="#cccccc" stroke-width="0.6"/>
<line x1="500" y1="52" x2="517" y2="52" stroke="#cccccc" stroke-width="0.6"/>
<line x1="517" y1="52" x2="534" y2="52" stroke="#cccccc" stroke-width="0.6"/>
<line x1="534" y1="52" x2="552" y2="52" stroke="#cccccc" stroke-width="0.6"/>
<line x1="552" y1="52" x2="570" y2="172" stroke="#cccccc" stroke-width="0.6"/>
<line x1="570" y1="172" x2="587" y2="52" stroke="#cccccc" stroke-width="0.6"/>
<line x1="587" y1="52" x2="604" y2="172" stroke="#cccccc" stroke-width="0.6"/>
<line x1="604" y1="172" x2="622" y2="112" stroke="#cccccc" stroke-width="0.6"/>
<line x1="622" y1="112" x2="640" y2="112" stroke="#cccccc" stroke-width="0.6"/>
<line x1="640" y1="112" x2="657" y2="52" stroke="#cccccc" stroke-width="0.6"/>
<line x1="657" y1="52" x2="674" y2="52" stroke="#cccccc" stroke-width="0.6"/>
<line x1="674" y1="52" x2="692" y2="52" stroke="#cccccc" stroke-width="0.6"/>
<circle cx="132" cy="172" r="4" fill="#D55E00"/>
<circle cx="150" cy="172" r="4" fill="#D55E00"/>
<circle cx="167" cy="172" r="4" fill="#D55E00"/>
<circle cx="184" cy="52" r="4" fill="#009E73"/>
<circle cx="202" cy="52" r="4" fill="#009E73"/>
<circle cx="220" cy="52" r="4" fill="#009E73"/>
<circle cx="237" cy="52" r="4" fill="#009E73"/>
<circle cx="254" cy="52" r="4" fill="#009E73"/>
<circle cx="272" cy="52" r="4" fill="#009E73"/>
<circle cx="290" cy="52" r="4" fill="#009E73"/>
<circle cx="307" cy="52" r="4" fill="#009E73"/>
<circle cx="324" cy="52" r="4" fill="#009E73"/>
<circle cx="342" cy="52" r="4" fill="#009E73"/>
<circle cx="360" cy="52" r="4" fill="#009E73"/>
<circle cx="377" cy="52" r="4" fill="#009E73"/>
<circle cx="394" cy="52" r="4" fill="#009E73"/>
<circle cx="412" cy="52" r="4" fill="#009E73"/>
<circle cx="430" cy="52" r="4" fill="#009E73"/>
<circle cx="447" cy="52" r="4" fill="#009E73"/>
<circle cx="464" cy="52" r="4" fill="#009E73"/>
<circle cx="482" cy="52" r="4" fill="#009E73"/>
<circle cx="500" cy="52" r="4" fill="#009E73"/>
<circle cx="517" cy="52" r="4" fill="#009E73"/>
<circle cx="534" cy="52" r="4" fill="#009E73"/>
<circle cx="552" cy="52" r="4" fill="#009E73"/>
<circle cx="570" cy="172" r="4" fill="#D55E00"/>
<circle cx="587" cy="52" r="4" fill="#009E73"/>
<circle cx="604" cy="172" r="4" fill="#D55E00"/>
<circle cx="622" cy="112" r="4" fill="#0072B2"/>
<circle cx="640" cy="112" r="4" fill="#0072B2"/>
<circle cx="657" cy="52" r="4" fill="#009E73"/>
<circle cx="674" cy="52" r="4" fill="#009E73"/>
<circle cx="692" cy="52" r="4" fill="#009E73"/>
<text x="412" y="236" text-anchor="middle" fill="#1a1a1a">dependency depth  (premises → conclusions)</text>
</svg>
