<svg xmlns="http://www.w3.org/2000/svg" width="722" height="250" font-family="sans-serif" font-size="11">
<rect width="722" height="250" fill="white"/>
<line x1="132" y1="52" x2="692" y2="52" stroke="#eeeeee"/>
<circle cx="120" cy="52" r="4" fill="#009E73"/>
<text x="110" y="55" text-anchor="end" fill="#1a1a1a">behavioral</text>
<line x1="132" y1="112" x2="692" y2="112" stroke="#eeeeee"/>
<circle cx="120" cy="112" r="4" fill="#0072B2"/>
<text x="110" y="115" text-anchor="end" fill="#1a1a1a">indeterminate</text>
<line x1="132" y1="172" x2="692" y2="172" stroke="#eeeeee"/>
<circle cx="120" cy="172" r="4" fill="#D55E00"/>
<text x="110" y="175" text-anchor="end" fill="#1a1a1a">vacuous</text>
<line x1="132" y1="172" x2="188" y2="172" stroke="#cccccc" stroke-width="0.6"/>
<line x1="188" y1="172" x2="244" y2="172" stroke="#cccccc" stroke-width="0.6"/>
<line x1="244" y1="172" x2="300" y2="26" stroke="#cccccc" stroke-width="0.6"/>
<line x1="132" y1="172" x2="300" y2="26" stroke="#cccccc" stroke-width="0.6"/>
<line x1="188" y1="172" x2="300" y2="39" stroke="#cccccc" stroke-width="0.6"/>
<line x1="244" y1="172" x2="300" y2="39" stroke="#cccccc" stroke-width="0.6"/>
<line x1="300" y1="39" x2="356" y2="32" stroke="#cccccc" stroke-width="0.6"/>
<line x1="132" y1="172" x2="188" y2="46" stroke="#cccccc" stroke-width="0.6"/>
<line x1="188" y1="46" x2="244" y2="39" stroke="#cccccc" stroke-width="0.6"/>
<line x1="244" y1="39" x2="300" y2="52" stroke="#cccccc" stroke-width="0.6"/>
<line x1="244" y1="39" x2="356" y2="46" stroke="#cccccc" stroke-width="0.6"/>
<line x1="300" y1="52" x2="356" y2="46" stroke="#cccccc" stroke-width="0.6"/>
<line x1="188" y1="46" x2="244" y2="52" stroke="#cccccc" stroke-width="0.6"/>
<line x1="244" y1="52" x2="300" y2="65" stroke="#cccccc" stroke-width="0.6"/>
<line x1="300" y1="65" x2="356" y2="58" stroke="#cccccc" stroke-width="0.6"/>
<line x1="356" y1="58" x2="412" y2="32" stroke="#cccccc" stroke-width="0.6"/>
<line x1="244" y1="52" x2="412" y2="32" stroke="#cccccc" stroke-width="0.6"/>
<line x1="356" y1="58" x2="412" y2="46" stroke="#cccccc" stroke-width="0.6"/>
<line x1="412" y1="46" x2="468" y2="32" stroke="#cccccc" stroke-width="0.6"/>
<line x1="412" y1="46" x2="468" y2="46" stroke="#cccccc" stroke-width="0.6"/>
<line x1="244" y1="172" x2="300" y2="78" stroke="#cccccc" stroke-width="0.6"/>
<line x1="300" y1="78" x2="356" y2="72" stroke="#cccccc" stroke-width="0.6"/>
<line x1="356" y1="72" x2="412" y2="58" stroke="#cccccc" stroke-width="0.6"/>
<line x1="356" y1="72" x2="412" y2="72" stroke="#cccccc" stroke-width="0.6"/>
<line x1="412" y1="72" x2="468" y2="58" stroke="#cccccc" stroke-width="0.6"/>
<line x1="412" y1="72" x2="468" y2="72" stroke="#cccccc" stroke-width="0.6"/>
<line x1="468" y1="72" x2="524" y2="52" stroke="#cccccc" stroke-width="0.6"/>
<line x1="412" y1="58" x2="524" y2="52" stroke="#cccccc" stroke-width="0.6"/>
<line x1="132" y1="172" x2="188" y2="58" stroke="#cccccc" stroke-width="0.6"/>
<line x1="188" y1="58" x2="412" y2="166" stroke="#cccccc" stroke-width="0.6"/>
<line x1="356" y1="32" x2="412" y2="166" stroke="#cccccc" stroke-width="0.6"/>
<line x1="188" y1="58" x2="244" y2="65" stroke="#cccccc" stroke-width="0.6"/>
<line x1="188" y1="46" x2="244" y2="65" stroke="#cccccc" stroke-width="0.6"/>
<line x1="188" y1="58" x2="412" y2="178" stroke="#cccccc" stroke-width="0.6"/>
<line x1="356" y1="58" x2="412" y2="178" stroke="#cccccc" stroke-width="0.6"/>
<line x1="412" y1="178" x2="468" y2="112" stroke="#cccccc" stroke-width="0.6"/>
<line x1="356" y1="58" x2="468" y2="112" stroke="#cccccc" stroke-width="0.6"/>
<line x1="468" y1="112" x2="524" y2="112" stroke="#cccccc" stroke-width="0.6"/>
<line x1="412" y1="178" x2="524" y2="112" stroke="#cccccc" stroke-width="0.6"/>
<line x1="300" y1="26" x2="580" y2="52" stroke="#cccccc" stroke-width="0.6"/>
<line x1="524" y1="112" x2="580" y2="52" stroke="#cccccc" stroke-width="0.6"/>
<line x1="580" y1="52" x2="636" y2="52" stroke="#cccccc" stroke-width="0.6"/>
<line x1="300" y1="26" x2="636" y2="52" stroke="#cccccc" stroke-width="0.6"/>
<line x1="636" y1="52" x2="692" y2="52" stroke="#cccccc" stroke-width="0.6"/>
<line x1="188" y1="46" x2="692" y2="52" stroke="#cccccc" stroke-width="0.6"/>
<circle cx="132" cy="172" r="4" fill="#D55E00"/>
<circle cx="188" cy="172" r="4" fill="#D55E00"/>
<circle cx="244" cy="172" r="4" fill="#D55E00"/>
<circle cx="300" cy="26" r="4" fill="#009E73"/>
<circle cx="300" cy="39" r="4" fill="#009E73"/>
<circle cx="356" cy="32" r="4" fill="#009E73"/>
<circle cx="188" cy="46" r="4" fill="#009E73"/>
<circle cx="244" cy="39" r="4" fill="#009E73"/>
<circle cx="300" cy="52" r="4" fill="#009E73"/>
<circle cx="356" cy="46" r="4" fill="#009E73"/>
<circle cx="244" cy="52" r="4" fill="#009E73"/>
<circle cx="300" cy="65" r="4" fill="#009E73"/>
<circle cx="356" cy="58" r="4" fill="#009E73"/>
<circle cx="412" cy="32" r="4" fill="#009E73"/>
<circle cx="412" cy="46" r="4" fill="#009E73"/>
<circle cx="468" cy="32" r="4" fill="#009E73"/>
<circle cx="468" cy="46" r="4" fill="#009E73"/>
<circle cx="300" cy="78" r="4" fill="#009E73"/>
<circle cx="356" cy="72" r="4" fill="#009E73"/>
<circle cx="412" cy="58" r="4" fill="#009E73"/>
<circle cx="412" cy="72" r="4" fill="#009E73"/>
<circle cx="468" cy="58" r="4" fill="#009E73"/>
<circle cx="468" cy="72" r="4" fill="#009E73"/>
<circle cx="524" cy="52" r="4" fill="#009E73"/>
<circle cx="188" cy="58" r="4" fill="#009E73"/>
<circle cx="412" cy="166" r="4" fill="#D55E00"/>
<circle cx="244" cy="65" r="4" fill="#009E73"/>
<circle cx="412" cy="178" r="4" fill="#D55E00"/>
<circle cx="468" cy="112" r="4" fill="#0072B2"/>
<circle cx="524" cy="112" r="4" fill="#0072B2"/>
<circle cx="580" cy="52" r="4" fill="#009E73"/>
<circle cx="636" cy="52" r="4" fill="#009E73"/>
<circle cx="692" cy="52" r="4" fill="#009E73"/>
<text x="412" y="236" text-anchor="middle" fill="#1a1a1a">dependency depth  (premises → conclusions)</text>
</svg>
